<?xml version="1.0" encoding="UTF-8" standalone="no"?>
<!-- Created with Inkscape (http://www.inkscape.org/) -->

<svg
   xmlns:dc="http://purl.org/dc/elements/1.1/"
   xmlns:cc="http://creativecommons.org/ns#"
   xmlns:rdf="http://www.w3.org/1999/02/22-rdf-syntax-ns#"
   xmlns:svg="http://www.w3.org/2000/svg"
   xmlns="http://www.w3.org/2000/svg"
   xmlns:sodipodi="http://sodipodi.sourceforge.net/DTD/sodipodi-0.dtd"
   xmlns:inkscape="http://www.inkscape.org/namespaces/inkscape"
   width="374"
   height="160"
   viewBox="0 0 98.954164 42.333335"
   version="1.1"
   id="svg8"
   inkscape:version="0.92.3 (2405546, 2018-03-11)"
   sodipodi:docname="logo-microsip.svg">
  <defs
     id="defs2" />
  <sodipodi:namedview
     id="base"
     pagecolor="#ffffff"
     bordercolor="#666666"
     borderopacity="1.0"
     inkscape:pageopacity="0.0"
     inkscape:pageshadow="2"
     inkscape:zoom="1.4"
     inkscape:cx="-4.2966099"
     inkscape:cy="-7.3789142"
     inkscape:document-units="px"
     inkscape:current-layer="layer1"
     showgrid="false"
     units="px"
     inkscape:window-width="1920"
     inkscape:window-height="1017"
     inkscape:window-x="-8"
     inkscape:window-y="-8"
     inkscape:window-maximized="1" />
  <metadata
     id="metadata5">
    <rdf:RDF>
      <cc:Work
         rdf:about="">
        <dc:format>image/svg+xml</dc:format>
        <dc:type
           rdf:resource="http://purl.org/dc/dcmitype/StillImage" />
        <dc:title></dc:title>
      </cc:Work>
    </rdf:RDF>
  </metadata>
  <g
     inkscape:label="Capa 1"
     inkscape:groupmode="layer"
     id="layer1"
     transform="translate(0,-254.66666)">
    <g
       id="g841"
       transform="matrix(0.2629129,0,0,0.2629129,-85.328438,206.6704)">
	<path
   id="path817"
   d="m 445.56,183.97 c -1.05,-1.19 -2.86,-1.3 -4.04,-0.25 l -32.72,28.96 4.04,-9.88 0.03,-0.07 c 0.84,-2.06 0.47,-4.52 -1.14,-6.25 -2.22,-2.39 -5.95,-2.52 -8.33,-0.3 l -22.78,21.23 1.02,-3.99 c 0.73,-2.87 -0.04,-6.06 -2.31,-8.29 -3.39,-3.33 -8.83,-3.28 -12.16,0.12 l -32.03,32.67 c -3.33,3.39 -3.27,8.84 0.12,12.17 3.39,3.33 8.83,3.28 12.16,-0.12 l 9.58,-9.78 -0.36,1.38 -0.1,0.38 c -0.76,2.97 0.12,6.25 2.56,8.44 3.5,3.13 8.87,2.84 12,-0.66 l 7.3,-8.15 c -0.92,3.13 -0.02,6.65 2.63,8.91 3.58,3.05 8.96,2.62 12.01,-0.97 L 445.6,187.7 c 0.9,-1.04 0.91,-2.65 -0.04,-3.73 z"
   class="st0"
   inkscape:connector-curvature="0"
   style="fill:#ff8623" />

	<g
   id="g839">
		<path
   id="path819"
   d="m 383.89,271.18 c -3.19,0 -6.17,0.73 -8.95,2.19 -2.78,1.46 -5.06,3.45 -6.83,5.96 -1.47,-2.58 -3.5,-4.58 -6.07,-6.01 -2.58,-1.43 -5.48,-2.14 -8.7,-2.14 -2.95,0 -5.76,0.68 -8.44,2.03 -2.68,1.35 -4.93,3.18 -6.74,5.48 l -5.47,-6.31 H 326 v 50.94 h 13.76 v -27.54 c 0,-3.96 0.87,-7.04 2.62,-9.23 1.75,-2.2 4.19,-3.29 7.32,-3.29 2.45,0 4.32,0.88 5.59,2.65 1.27,1.77 1.91,4.35 1.91,7.76 v 29.66 h 13.39 v -27.54 c 0,-3.96 0.87,-7.04 2.6,-9.23 1.73,-2.2 4.13,-3.29 7.2,-3.29 2.49,0 4.38,0.88 5.68,2.65 1.3,1.77 1.96,4.35 1.96,7.76 v 29.66 h 13.76 v -31.96 c 0,-5.96 -1.66,-10.81 -4.99,-14.55 -3.33,-3.78 -7.63,-5.65 -12.91,-5.65 z"
   class="st1"
   inkscape:connector-curvature="0"
   style="fill:#202427" />

		<path
   id="path821"
   d="m 462.92,309.59 c -2.12,1.47 -4.57,2.21 -7.36,2.21 -3.68,0 -6.78,-1.36 -9.3,-4.08 -2.52,-2.72 -3.77,-6.04 -3.77,-9.97 0,-3.93 1.25,-7.22 3.75,-9.88 2.5,-2.66 5.61,-3.98 9.32,-3.98 2.73,0 5.18,0.7 7.36,2.1 2.18,1.4 3.82,3.36 4.92,5.87 h 13.67 c -1.26,-6.29 -4.24,-11.35 -8.95,-15.18 -4.71,-3.82 -10.35,-5.73 -16.91,-5.73 -3.8,0 -7.39,0.68 -10.75,2.05 -3.36,1.37 -6.24,3.23 -8.63,5.6 -2.39,2.36 -4.28,5.2 -5.66,8.52 -1.38,3.32 -2.07,6.85 -2.07,10.59 0,3.75 0.69,7.29 2.07,10.64 1.38,3.35 3.27,6.22 5.66,8.61 2.39,2.4 5.26,4.29 8.61,5.69 3.34,1.4 6.9,2.1 10.68,2.1 6.63,0 12.34,-1.97 17.14,-5.92 4.8,-3.94 7.8,-9.13 9,-15.54 h -13.85 c -1.18,2.72 -2.82,4.83 -4.93,6.3 z"
   class="st1"
   inkscape:connector-curvature="0"
   style="fill:#202427" />

		<path
   id="path823"
   d="m 517.83,272.1 h -4.51 c -6.35,0 -11.27,2.18 -14.77,6.54 l -5.47,-6.26 h -5.76 v 50.94 h 13.76 v -26.48 c 0,-4.18 0.84,-7.18 2.51,-9 1.67,-1.83 4.44,-2.74 8.31,-2.74 h 5.94 v -13 z"
   class="st1"
   inkscape:connector-curvature="0"
   style="fill:#202427" />

		<path
   id="path825"
   d="m 558.67,274.42 c -4.2,-2.32 -8.88,-3.48 -14.04,-3.48 -5.18,0 -9.88,1.16 -14.08,3.48 -4.2,2.32 -7.49,5.53 -9.87,9.63 -2.38,4.1 -3.57,8.7 -3.57,13.79 0,5.04 1.19,9.61 3.57,13.73 2.38,4.12 5.67,7.34 9.87,9.67 4.2,2.33 8.9,3.5 14.08,3.5 5.15,0 9.83,-1.17 14.04,-3.5 4.2,-2.33 7.5,-5.56 9.89,-9.67 2.39,-4.11 3.59,-8.69 3.59,-13.73 0,-5.07 -1.2,-9.66 -3.59,-13.77 -2.39,-4.11 -5.69,-7.33 -9.89,-9.65 z m -4.28,33.49 c -2.55,2.6 -5.8,3.89 -9.76,3.89 -3.96,0 -7.21,-1.3 -9.76,-3.89 -2.55,-2.59 -3.82,-5.95 -3.82,-10.06 0,-4.11 1.27,-7.47 3.82,-10.06 2.55,-2.59 5.8,-3.89 9.76,-3.89 3.96,0 7.21,1.3 9.76,3.89 2.55,2.6 3.82,5.95 3.82,10.06 0,4.11 -1.27,7.47 -3.82,10.06 z"
   class="st1"
   inkscape:connector-curvature="0"
   style="fill:#202427" />

		<path
   id="path827"
   d="m 609.79,294.71 c -2.18,-0.95 -5.74,-1.87 -10.68,-2.76 -1.17,-0.21 -2.03,-0.38 -2.6,-0.48 -0.57,-0.11 -1.3,-0.28 -2.21,-0.51 -0.91,-0.23 -1.58,-0.46 -2.02,-0.69 -0.44,-0.23 -0.92,-0.51 -1.43,-0.83 -0.51,-0.32 -0.86,-0.71 -1.06,-1.15 -0.2,-0.44 -0.3,-0.94 -0.3,-1.5 0,-1.47 0.61,-2.66 1.82,-3.55 1.21,-0.89 2.88,-1.34 4.99,-1.34 2.42,0 4.3,0.51 5.64,1.52 1.34,1.01 2.02,2.52 2.05,4.51 h 13.07 c -0.03,-5.1 -1.9,-9.2 -5.61,-12.32 -3.71,-3.12 -8.64,-4.67 -14.77,-4.67 -6.11,0 -11.04,1.51 -14.82,4.54 -3.77,3.02 -5.66,6.95 -5.66,11.77 0,1.66 0.21,3.18 0.62,4.56 0.41,1.38 0.94,2.56 1.56,3.52 0.63,0.97 1.47,1.85 2.53,2.65 1.06,0.8 2.06,1.44 3.01,1.91 0.95,0.48 2.12,0.91 3.52,1.31 1.4,0.4 2.58,0.7 3.57,0.9 0.98,0.2 2.19,0.42 3.64,0.67 1.59,0.28 2.88,0.53 3.87,0.76 0.98,0.23 1.98,0.55 2.99,0.97 1.01,0.41 1.76,0.93 2.23,1.54 0.48,0.61 0.71,1.34 0.71,2.16 0,1.63 -0.7,2.89 -2.09,3.78 -1.4,0.89 -3.11,1.34 -5.13,1.34 -2.55,0 -4.59,-0.58 -6.14,-1.75 -1.55,-1.17 -2.34,-2.84 -2.37,-5.02 h -13.39 c 0.03,5.47 2,9.87 5.91,13.2 3.91,3.33 9.06,5 15.44,5 6.44,0 11.61,-1.56 15.51,-4.67 3.9,-3.12 5.84,-7.27 5.84,-12.46 0,-6.15 -2.75,-10.45 -8.24,-12.91 z"
   class="st1"
   inkscape:connector-curvature="0"
   style="fill:#202427" />

		<path
   id="path829"
   d="m 696.55,284.07 c -2.3,-4.11 -5.48,-7.33 -9.55,-9.65 -4.07,-2.32 -8.61,-3.48 -13.64,-3.48 -6.32,0 -11.77,2.03 -16.34,6.08 l -4.03,-4.65 h -7.38 V 343 h 13.76 v -22.45 c 4.17,2.86 8.84,4.28 13.99,4.28 5.03,0 9.58,-1.17 13.64,-3.5 4.07,-2.33 7.25,-5.56 9.55,-9.7 2.3,-4.13 3.45,-8.73 3.45,-13.79 0,-5.06 -1.15,-9.65 -3.45,-13.77 z m -14.43,23.77 c -2.62,2.64 -5.93,3.96 -9.92,3.96 -3.99,0 -7.29,-1.33 -9.92,-3.98 -2.62,-2.66 -3.93,-5.98 -3.93,-9.97 0,-3.99 1.31,-7.32 3.93,-9.97 2.62,-2.66 5.93,-3.98 9.92,-3.98 3.99,0 7.29,1.32 9.92,3.96 2.62,2.64 3.93,5.97 3.93,9.99 0.01,4.02 -1.31,7.35 -3.93,9.99 z"
   class="st1"
   inkscape:connector-curvature="0"
   style="fill:#202427" />

		<rect
   id="rect831"
   height="50.939999"
   width="13.76"
   class="st1"
   y="272.38"
   x="624.09003"
   style="fill:#202427" />

		<path
   id="path833"
   d="m 630.97,252.69 c -2.48,0 -4.39,0.72 -5.68,2.13 -1.25,1.37 -1.89,3.11 -1.89,5.16 0,2.05 0.63,3.79 1.88,5.16 1.29,1.42 3.2,2.13 5.68,2.13 2.48,0 4.39,-0.72 5.68,-2.13 1.25,-1.37 1.89,-3.11 1.89,-5.16 0,-2.05 -0.63,-3.78 -1.89,-5.16 -1.28,-1.41 -3.19,-2.13 -5.67,-2.13 z"
   class="st1"
   inkscape:connector-curvature="0"
   style="fill:#202427" />

		<rect
   id="rect835"
   height="50.939999"
   width="13.76"
   class="st1"
   y="272.38"
   x="409.48001"
   style="fill:#202427" />

		<path
   id="path837"
   d="m 416.36,252.69 c -2.48,0 -4.39,0.72 -5.68,2.13 -1.25,1.37 -1.89,3.11 -1.89,5.16 0,2.05 0.63,3.79 1.88,5.16 1.29,1.42 3.2,2.13 5.68,2.13 2.48,0 4.39,-0.72 5.68,-2.13 1.25,-1.37 1.89,-3.11 1.89,-5.16 0,-2.05 -0.63,-3.78 -1.89,-5.16 -1.28,-1.41 -3.19,-2.13 -5.67,-2.13 z"
   class="st1"
   inkscape:connector-curvature="0"
   style="fill:#202427" />

	</g>

</g>
  </g>
  <style
     id="style815"
     type="text/css">
	.st0{fill:#FF8623;}
	.st1{fill:#202427;}
</style>
</svg>
